<?xml version="1.0" encoding="iso-8859-1"?>
<!-- Uploaded to: SVG Repo, www.svgrepo.com, Generator: SVG Repo Mixer Tools -->
<!DOCTYPE svg PUBLIC "-//W3C//DTD SVG 1.1//EN" "http://www.w3.org/Graphics/SVG/1.1/DTD/svg11.dtd">
<svg fill="#000000" version="1.1" id="Capa_1" xmlns="http://www.w3.org/2000/svg" xmlns:xlink="http://www.w3.org/1999/xlink" 
	 width="800px" height="800px" viewBox="0 0 584.424 584.424"
	 xml:space="preserve">
<g>
	<g>
		<path d="M387.234,297.274c-3.773-3.773-8.648-5.851-13.728-5.851c-6.444,0-12.506,3.403-16.218,9.101
			c-14.848,22.787-33.938,41.877-56.742,56.738c-5.116,3.336-8.396,8.547-8.996,14.297c-0.594,5.695,1.502,11.395,5.753,15.645
			l178.521,178.553c12.035,12.033,28.023,18.662,45.021,18.662c17.008,0,32.983-6.631,44.985-18.676
			c11.989-11.967,18.599-27.932,18.593-44.926c-0.007-16.996-6.625-32.973-18.642-44.986L387.234,297.274z M539.49,539.491
			c-3.437,3.438-7.938,5.154-12.438,5.154c-4.502,0-9.003-1.721-12.439-5.154l-49.792-49.754c-6.873-6.873-6.873-18.006,0-24.879
			c3.455-3.436,7.956-5.152,12.457-5.152s9.003,1.719,12.457,5.152l49.756,49.756C546.363,521.487,546.363,532.62,539.49,539.491z"
			/>
		<path d="M183.499,0.005C82.317,0.005,0,82.322,0,183.504s82.317,183.499,183.499,183.499
			c101.182,0,183.499-82.317,183.499-183.499S284.681,0.005,183.499,0.005z M291.141,183.504
			c0,59.352-48.287,107.642-107.642,107.642c-59.352,0-107.642-48.287-107.642-107.642S124.145,75.862,183.499,75.862
			C242.854,75.862,291.141,124.149,291.141,183.504z"/>
	</g>
</g>
</svg>